<mxfile host="app.diagrams.net" modified="2022-04-15T00:05:54.499Z" agent="5.0 (Windows NT 10.0; Win64; x64) AppleWebKit/537.36 (KHTML, like Gecko) Chrome/100.0.4896.75 Safari/537.36 Edg/100.0.1185.39" etag="HWd5LaTXhwCRCJ47T4fC" version="17.4.4" type="github">
  <diagram id="ZRJJVTkRSKi0hP1kti0m" name="Page-1">
    <mxGraphModel dx="782" dy="514" grid="1" gridSize="10" guides="1" tooltips="1" connect="1" arrows="1" fold="1" page="1" pageScale="1" pageWidth="827" pageHeight="1169" math="0" shadow="0">
      <root>
        <mxCell id="0" />
        <mxCell id="1" parent="0" />
        <mxCell id="ViJ2TcdAd6PLvsIQVYgs-4" style="edgeStyle=none;shape=link;rounded=0;orthogonalLoop=1;jettySize=auto;html=1;entryX=0;entryY=0.5;entryDx=0;entryDy=0;" edge="1" parent="1" source="ViJ2TcdAd6PLvsIQVYgs-1" target="ViJ2TcdAd6PLvsIQVYgs-5">
          <mxGeometry relative="1" as="geometry">
            <mxPoint x="320" y="280" as="targetPoint" />
          </mxGeometry>
        </mxCell>
        <mxCell id="ViJ2TcdAd6PLvsIQVYgs-6" style="edgeStyle=none;shape=link;rounded=0;sketch=0;orthogonalLoop=1;jettySize=auto;html=1;entryX=0;entryY=0.5;entryDx=0;entryDy=0;shadow=0;endArrow=block;endFill=0;" edge="1" parent="1" source="ViJ2TcdAd6PLvsIQVYgs-1" target="ViJ2TcdAd6PLvsIQVYgs-2">
          <mxGeometry relative="1" as="geometry" />
        </mxCell>
        <mxCell id="ViJ2TcdAd6PLvsIQVYgs-1" value="心" style="rounded=0;whiteSpace=wrap;html=1;" vertex="1" parent="1">
          <mxGeometry x="120" y="160" width="120" height="60" as="geometry" />
        </mxCell>
        <mxCell id="ViJ2TcdAd6PLvsIQVYgs-2" value="理" style="rounded=0;whiteSpace=wrap;html=1;" vertex="1" parent="1">
          <mxGeometry x="330" y="50" width="120" height="60" as="geometry" />
        </mxCell>
        <mxCell id="ViJ2TcdAd6PLvsIQVYgs-5" value="事" style="rounded=0;whiteSpace=wrap;html=1;" vertex="1" parent="1">
          <mxGeometry x="330" y="260" width="120" height="60" as="geometry" />
        </mxCell>
        <mxCell id="ViJ2TcdAd6PLvsIQVYgs-7" value="相互构建的关系" style="text;html=1;strokeColor=none;fillColor=none;align=center;verticalAlign=middle;whiteSpace=wrap;rounded=0;" vertex="1" parent="1">
          <mxGeometry x="290" y="175" width="110" height="30" as="geometry" />
        </mxCell>
        <mxCell id="ViJ2TcdAd6PLvsIQVYgs-8" value="&lt;h1&gt;心即理 性即理&lt;/h1&gt;&lt;p&gt;花自开自落，与心何干？&lt;/p&gt;&lt;p&gt;当心没有观照花时，心与花之间无感应，而非不存在（在这个意义上，并非主观唯心主义）&lt;/p&gt;" style="text;html=1;strokeColor=none;fillColor=none;spacing=5;spacingTop=-20;whiteSpace=wrap;overflow=hidden;rounded=0;" vertex="1" parent="1">
          <mxGeometry x="530" y="130" width="190" height="120" as="geometry" />
        </mxCell>
      </root>
    </mxGraphModel>
  </diagram>
</mxfile>
